<svg width="24" height="22" viewBox="0 0 24 22" fill="none" xmlns="http://www.w3.org/2000/svg">
<path fill-rule="evenodd" clip-rule="evenodd" d="M5.19702 9.43116C7.73417 9.43116 9.80274 7.36258 9.80274 4.82544C9.80274 2.2883 7.73417 0.219727 5.19702 0.219727C2.65988 0.219727 0.591309 2.2883 0.591309 4.82544C0.591309 7.36258 2.65988 9.43116 5.19702 9.43116Z" fill="#9ae9e9"/>
<path fill-rule="evenodd" clip-rule="evenodd" d="M16.6826 13.5458C18.6426 13.5458 20.2426 11.9458 20.2426 9.98578C20.2426 8.02578 18.6426 6.42578 16.6826 6.42578C14.7226 6.42578 13.1226 8.02578 13.1226 9.98578C13.1226 11.9458 14.7226 13.5458 16.6826 13.5458Z" fill="none"/>
<path fill-rule="evenodd" clip-rule="evenodd" d="M12.5142 9.98498C12.5142 7.68887 14.3866 5.81641 16.6827 5.81641C18.9788 5.81641 20.8513 7.68887 20.8513 9.98498C20.8513 12.2811 18.9788 14.1535 16.6827 14.1535C14.3866 14.1535 12.5142 12.2811 12.5142 9.98498ZM16.6827 7.03355C15.0588 7.03355 13.7313 8.36108 13.7313 9.98498C13.7313 11.6089 15.0588 12.9364 16.6827 12.9364C18.3066 12.9364 19.6342 11.6089 19.6342 9.98498C19.6342 8.36108 18.3066 7.03355 16.6827 7.03355Z" fill="black"/>
<path fill-rule="evenodd" clip-rule="evenodd" d="M16.6825 13.5459C20.0482 13.5459 22.7968 16.3002 22.7968 19.6602V21.1688H10.5625V19.6602C10.5625 16.2945 13.3168 13.5459 16.6768 13.5459H16.6825Z" fill="none"/>
<path fill-rule="evenodd" clip-rule="evenodd" d="M16.677 14.1537C13.6527 14.1537 11.1712 16.6301 11.1712 19.6594V20.5594H22.1884V19.6594C22.1884 16.6351 19.7119 14.1537 16.6827 14.1537H16.677ZM9.9541 19.6594C9.9541 15.9572 12.9812 12.9365 16.677 12.9365H16.6827C20.3849 12.9365 23.4055 15.9636 23.4055 19.6594V21.168C23.4055 21.5041 23.1331 21.7765 22.797 21.7765H10.5627C10.2266 21.7765 9.9541 21.5041 9.9541 21.168V19.6594Z" fill="black"/>
<path fill-rule="evenodd" clip-rule="evenodd" d="M5.95993 1.19646C5.95993 0.860357 6.2324 0.587891 6.5685 0.587891H15.2714C16.3846 0.587891 17.2914 1.49464 17.2914 2.60789V4.28218C17.2914 4.61828 17.0189 4.89075 16.6828 4.89075C16.3467 4.89075 16.0742 4.61828 16.0742 4.28218V2.60789C16.0742 2.16685 15.7124 1.80503 15.2714 1.80503H6.5685C6.2324 1.80503 5.95993 1.53257 5.95993 1.19646ZM1.68279 5.2736C2.01889 5.2736 2.29136 5.54607 2.29136 5.88218V18.8136C2.29136 19.2546 2.65318 19.6165 3.09422 19.6165H8.32279C8.6589 19.6165 8.93136 19.8889 8.93136 20.225C8.93136 20.5611 8.6589 20.8336 8.32279 20.8336H3.09422C1.98097 20.8336 1.07422 19.9269 1.07422 18.8136V5.88218C1.07422 5.54607 1.34669 5.2736 1.68279 5.2736Z" fill="black"/>
<path fill-rule="evenodd" clip-rule="evenodd" d="M6.80677 0.636592C7.03118 0.732191 7.17683 0.95255 7.17683 1.19648V4.39648C7.17683 5.50973 6.27008 6.41648 5.15683 6.41648H1.76826C1.5199 6.41648 1.29645 6.26555 1.20371 6.03515C1.11097 5.80475 1.16754 5.54111 1.34664 5.36905L6.14664 0.757618C6.32254 0.588626 6.58236 0.540992 6.80677 0.636592ZM3.28014 5.19933H5.15683C5.59787 5.19933 5.95969 4.83752 5.95969 4.39648V2.62505L3.28014 5.19933Z" fill="black"/>
<path fill-rule="evenodd" clip-rule="evenodd" d="M4.05127 8.84295C4.05127 8.50684 4.32374 8.23438 4.65984 8.23438H11.1341C11.4702 8.23438 11.7427 8.50684 11.7427 8.84295C11.7427 9.17905 11.4702 9.45152 11.1341 9.45152H4.65984C4.32374 9.45152 4.05127 9.17905 4.05127 8.84295Z" fill="black"/>
<path fill-rule="evenodd" clip-rule="evenodd" d="M4.05127 12.0138C4.05127 11.6777 4.32374 11.4053 4.65984 11.4053H11.1341C11.4702 11.4053 11.7427 11.6777 11.7427 12.0138C11.7427 12.3499 11.4702 12.6224 11.1341 12.6224H4.65984C4.32374 12.6224 4.05127 12.3499 4.05127 12.0138Z" fill="black"/>
<path fill-rule="evenodd" clip-rule="evenodd" d="M4.05127 15.5685C4.05127 15.2324 4.32374 14.96 4.65984 14.96H7.89413C8.23023 14.96 8.5027 15.2324 8.5027 15.5685C8.5027 15.9046 8.23023 16.1771 7.89413 16.1771H4.65984C4.32374 16.1771 4.05127 15.9046 4.05127 15.5685Z" fill="black"/>
</svg>
