<svg width="24" height="24" viewBox="0 0 24 24" fill="none" xmlns="http://www.w3.org/2000/svg">
<path d="M18.9816 11.0827C21.5919 10.4642 23.2065 7.84682 22.5881 5.23656C21.9696 2.62631 19.3522 1.01166 16.7419 1.63014C14.1317 2.24862 12.517 4.86603 13.1355 7.47628C13.754 10.0865 16.3714 11.7012 18.9816 11.0827Z" fill="#FFA14A"/>
<path fillRule="evenodd" clipRule="evenodd" d="M9.57126 2.07582V10.2144C9.57126 10.5505 9.84372 10.823 10.1798 10.823C10.5159 10.823 10.7884 10.5505 10.7884 10.2144V2.04298C10.7884 1.71275 10.6492 1.38469 10.4416 1.15387C10.2351 0.924256 9.8256 0.66686 9.3395 0.859666L2.11274 3.68182L2.11273 3.6818L2.1081 3.68365C1.94886 3.74735 1.71303 3.847 1.51666 4.01165C1.29562 4.197 1.1084 4.47951 1.1084 4.86584V21.9744C1.1084 22.6477 1.66087 23.2001 2.33411 23.2001H3.99126C4.32736 23.2001 4.59983 22.9277 4.59983 22.5916C4.59983 22.2555 4.32736 21.983 3.99126 21.983H2.33474C2.33379 21.9826 2.33173 21.9814 2.32944 21.9791C2.32714 21.9768 2.32597 21.9747 2.32554 21.9738V4.92498C2.33965 4.91586 2.35868 4.9047 2.38389 4.89171C2.43066 4.8676 2.48716 4.84297 2.55787 4.81465L9.57126 2.07582ZM9.53487 1.96598C9.53487 1.96596 9.53522 1.96628 9.53588 1.96698C9.5352 1.96636 9.53487 1.96601 9.53487 1.96598Z" fill="black"/>
<path fillRule="evenodd" clipRule="evenodd" d="M9.57129 6.80291C9.57129 6.4668 9.84376 6.19434 10.1799 6.19434H17.0884C17.4245 6.19434 17.697 6.4668 17.697 6.80291V10.3401C17.697 10.6762 17.4245 10.9486 17.0884 10.9486C16.7523 10.9486 16.4799 10.6762 16.4799 10.3401V7.41148H10.7884V10.3401C10.7884 10.6762 10.516 10.9486 10.1799 10.9486C9.84376 10.9486 9.57129 10.6762 9.57129 10.3401V6.80291Z" fill="black"/>
<path d="M6.68832 12.374H22.1226C22.214 12.374 22.2826 12.4483 22.2826 12.534V22.4255C22.2826 22.5169 22.2083 22.5855 22.1226 22.5855H6.68832C6.59689 22.5855 6.52832 22.5112 6.52832 22.4255V12.534C6.52832 12.4426 6.60261 12.374 6.68832 12.374Z" fill="#9AE9E9"/>
<path fillRule="evenodd" clipRule="evenodd" d="M7.13706 12.9828V21.9771H21.6742V12.9828H7.13706ZM5.91992 12.5342C5.91992 12.0926 6.28093 11.7656 6.68849 11.7656H22.1228C22.5644 11.7656 22.8914 12.1266 22.8914 12.5342V22.4256C22.8914 22.8672 22.5303 23.1942 22.1228 23.1942H6.68849C6.24688 23.1942 5.91992 22.8332 5.91992 22.4256V12.5342Z" fill="black"/>
<path fillRule="evenodd" clipRule="evenodd" d="M9.67383 12.3742C9.67383 12.0381 9.94629 11.7656 10.2824 11.7656H18.5338C18.8699 11.7656 19.1424 12.0381 19.1424 12.3742V15.0656C19.1424 15.4017 18.8699 15.6742 18.5338 15.6742H10.2824C9.94629 15.6742 9.67383 15.4017 9.67383 15.0656V12.3742ZM10.891 12.9828V14.4571H17.9253V12.9828H10.891Z" fill="black"/>
<path fillRule="evenodd" clipRule="evenodd" d="M11.4512 17.5344C11.4512 17.1982 11.7236 16.9258 12.0597 16.9258H19.9569C20.293 16.9258 20.5655 17.1982 20.5655 17.5344C20.5655 17.8705 20.293 18.1429 19.9569 18.1429H12.0597C11.7236 18.1429 11.4512 17.8705 11.4512 17.5344Z" fill="black"/>
<path fillRule="evenodd" clipRule="evenodd" d="M11.4512 20.0256C11.4512 19.6895 11.7236 19.417 12.0597 19.417H19.9569C20.293 19.417 20.5655 19.6895 20.5655 20.0256C20.5655 20.3617 20.293 20.6341 19.9569 20.6341H12.0597C11.7236 20.6341 11.4512 20.3617 11.4512 20.0256Z" fill="black"/>
<path fillRule="evenodd" clipRule="evenodd" d="M8.18262 17.5344C8.18262 17.1982 8.45508 16.9258 8.79119 16.9258H9.72833C10.0644 16.9258 10.3369 17.1982 10.3369 17.5344C10.3369 17.8705 10.0644 18.1429 9.72833 18.1429H8.79119C8.45508 18.1429 8.18262 17.8705 8.18262 17.5344Z" fill="black"/>
<path fillRule="evenodd" clipRule="evenodd" d="M8.18262 20.0256C8.18262 19.6895 8.45508 19.417 8.79119 19.417H9.72833C10.0644 19.417 10.3369 19.6895 10.3369 20.0256C10.3369 20.3617 10.0644 20.6341 9.72833 20.6341H8.79119C8.45508 20.6341 8.18262 20.3617 8.18262 20.0256Z" fill="black"/>
</svg>
